<svg width="20" height="20" viewBox="0 0 20 20" fill="none" xmlns="http://www.w3.org/2000/svg">
<rect width="20" height="20" rx="10" fill="#307BC4"/>
<path d="M4 7C4 6.60218 4.15804 6.22064 4.43934 5.93934C4.72064 5.65804 5.10218 5.5 5.5 5.5H14.5C14.8978 5.5 15.2794 5.65804 15.5607 5.93934C15.842 6.22064 16 6.60218 16 7V13C16 13.3978 15.842 13.7794 15.5607 14.0607C15.2794 14.342 14.8978 14.5 14.5 14.5H5.5C5.10218 14.5 4.72064 14.342 4.43934 14.0607C4.15804 13.7794 4 13.3978 4 13V7ZM5.5 6.25C5.30109 6.25 5.11032 6.32902 4.96967 6.46967C4.82902 6.61032 4.75 6.80109 4.75 7V7.16275L10 10.3127L15.25 7.16275V7C15.25 6.80109 15.171 6.61032 15.0303 6.46967C14.8897 6.32902 14.6989 6.25 14.5 6.25H5.5ZM15.25 8.03725L11.719 10.156L15.25 12.3287V8.03725ZM15.2245 13.1943L10.9945 10.591L10 11.1873L9.0055 10.591L4.7755 13.1935C4.81812 13.3531 4.91224 13.4942 5.04324 13.5948C5.17425 13.6954 5.33481 13.75 5.5 13.75H14.5C14.6651 13.75 14.8256 13.6956 14.9566 13.5951C15.0876 13.4946 15.1817 13.3537 15.2245 13.1943ZM4.75 12.3287L8.281 10.156L4.75 8.03725V12.3287Z" fill="white"/>
</svg>
