<!DOCTYPE svg PUBLIC "-//W3C//DTD SVG 1.1//EN" "http://www.w3.org/Graphics/SVG/1.1/DTD/svg11.dtd">
<!-- Uploaded to: SVG Repo, www.svgrepo.com, Transformed by: SVG Repo Mixer Tools -->
<svg fill="#ffffff" height="164px" width="164px" version="1.1" id="Layer_1" xmlns="http://www.w3.org/2000/svg" xmlns:xlink="http://www.w3.org/1999/xlink" viewBox="-25.6 -25.6 563.20 563.20" xml:space="preserve" stroke="#ffffff" stroke-width="0.0051199900000000005">
<g id="SVGRepo_bgCarrier" stroke-width="0"/>
<g id="SVGRepo_tracerCarrier" stroke-linecap="round" stroke-linejoin="round" stroke="#CCCCCC" stroke-width="3.071994"/>
<g id="SVGRepo_iconCarrier"> <g> <g> <path d="M460.728,104.864V93.947c0-19.975-16.251-36.227-36.227-36.227h-43.823c-19.975,0-36.226,16.251-36.226,36.227v9.53 H215.806V76.267c0-26.762-21.772-48.534-48.534-48.534H97.047c-26.762,0-48.534,21.772-48.534,48.534v30.604 c0,0.606,0.036,1.201,0.091,1.792C20.193,119.738,0,147.374,0,179.656v240.026c0,35.613,28.972,64.585,64.585,64.585h382.83 c35.613,0,64.585-28.972,64.585-64.585v-251.62C512,137.012,489.975,111.017,460.728,104.864z M256,405.96 c-61.092,0-110.792-49.7-110.792-110.792c0-61.091,49.7-110.791,110.792-110.791s110.792,49.7,110.792,110.791 C366.792,356.259,317.091,405.96,256,405.96z M420.36,214.598c-12.656,0-22.953-10.297-22.953-22.953 c0-12.657,10.297-22.954,22.953-22.954c12.657,0,22.954,10.297,22.954,22.954C443.314,204.301,433.018,214.598,420.36,214.598z"/> </g> </g> <g> <g> <path d="M256,223.286c-39.636,0-71.883,32.246-71.883,71.881c0,39.636,32.247,71.883,71.883,71.883 c39.636,0,71.883-32.247,71.883-71.883C327.883,255.532,295.636,223.286,256,223.286z"/> </g> </g> </g>
</svg>