<svg width="20" height="20" viewBox="0 0 20 20" fill="none" xmlns="http://www.w3.org/2000/svg">
<rect width="20" height="20" rx="10" fill="#307BC4"/>
<path d="M7.52839 5.20915L8.11189 5.03365C8.43153 4.93726 8.77533 4.96046 9.07912 5.09893C9.38292 5.23739 9.62596 5.48166 9.76289 5.78615L10.2139 6.78915C10.3316 7.05105 10.3644 7.34324 10.3076 7.62472C10.2509 7.9062 10.1074 8.16284 9.89739 8.35865L9.14989 9.05515C9.12805 9.0755 9.11422 9.10299 9.11089 9.13265C9.08889 9.33115 9.22339 9.71765 9.53389 10.2551C9.75889 10.6456 9.96339 10.9201 10.1369 11.0736C10.2584 11.1811 10.3249 11.2041 10.3534 11.1961L11.3584 10.8886C11.6328 10.8047 11.9267 10.8087 12.1987 10.9002C12.4708 10.9917 12.7074 11.166 12.8754 11.3986L13.5154 12.2866C13.7102 12.5566 13.8005 12.8881 13.7694 13.2196C13.7383 13.5511 13.588 13.8601 13.3464 14.0891L12.9029 14.5091C12.6678 14.7318 12.379 14.8898 12.0647 14.9677C11.7504 15.0456 11.4213 15.0407 11.1094 14.9536C9.73239 14.5691 8.49789 13.4071 7.39189 11.4916C6.28489 9.57365 5.89589 7.92165 6.25489 6.53515C6.33548 6.22332 6.49503 5.9375 6.71817 5.70525C6.94132 5.473 7.22003 5.30214 7.52839 5.20915ZM7.74539 5.92765C7.56033 5.9833 7.39273 6.08569 7.25874 6.22493C7.12475 6.36418 7.02888 6.53559 6.98039 6.72265C6.67939 7.88865 7.02389 9.35315 8.04189 11.1166C9.05889 12.8776 10.1534 13.9081 11.3119 14.2316C11.499 14.2838 11.6965 14.2867 11.8851 14.2399C12.0736 14.1931 12.2469 14.0983 12.3879 13.9647L12.8309 13.5447C12.9408 13.4405 13.0092 13.3001 13.0233 13.1494C13.0375 12.9986 12.9965 12.8479 12.9079 12.7251L12.2679 11.8376C12.1915 11.7318 12.0839 11.6524 11.9602 11.6108C11.8364 11.5692 11.7027 11.5674 11.5779 11.6056L10.5704 11.9141C9.98539 12.0881 9.45489 11.6176 8.88489 10.6301C8.49989 9.96515 8.32089 9.45015 8.36589 9.04965C8.38889 8.84165 8.48589 8.64965 8.63839 8.50665L9.38589 7.81015C9.48131 7.7211 9.54647 7.6044 9.5722 7.47644C9.59794 7.34848 9.58297 7.21567 9.52939 7.09665L9.07889 6.09365C9.01664 5.95524 8.90615 5.84422 8.76806 5.78129C8.62996 5.71836 8.47368 5.70782 8.32839 5.75165L7.74539 5.92765Z" fill="white"/>
</svg>
